<svg width="38" height="42" viewBox="0 0 38 42" fill="none" xmlns="http://www.w3.org/2000/svg">
<path d="M7.85763 2.82605C8.40235 2.2019 8.33796 1.25434 7.71381 0.709615C7.08966 0.16489 6.1421 0.229279 5.59737 0.853431L3.01376 3.81377C1.54823 5.49298 0.719771 7.63401 0.673298 9.86232L0.559938 15.2976C0.542665 16.1259 1.20009 16.8113 2.02833 16.8286C2.85658 16.8459 3.54201 16.1884 3.55929 15.3602L3.67265 9.92488C3.70444 8.40024 4.27128 6.93533 5.27401 5.78639L7.85763 2.82605Z" fill="white"/>
<path fill-rule="evenodd" clip-rule="evenodd" d="M7.47403 13.4016C7.75183 8.96015 11.435 5.50012 15.8852 5.50012H17V4.00013C17 2.89556 17.8954 2.00013 19 2.00013C20.1046 2.00013 21 2.89556 21 4.00013V5.50012H22.1148C26.565 5.50012 30.2482 8.96015 30.5259 13.4016L30.9679 20.4685C31.1365 23.1629 32.0411 25.7594 33.5832 27.9753C34.9765 29.9774 33.7361 32.7425 31.3142 33.0332L24.5 33.8509V36.0001C24.5 39.0377 22.0376 41.5001 19 41.5001C15.9624 41.5001 13.5 39.0377 13.5 36.0001V33.8509L6.68574 33.0332C4.26388 32.7426 3.02344 29.9774 4.41681 27.9753C5.95893 25.7594 6.8635 23.1629 7.03203 20.4685L7.47403 13.4016ZM15.8852 8.50012C13.0192 8.50012 10.6471 10.7285 10.4682 13.5889L10.0262 20.6558C9.82339 23.8981 8.73488 27.0225 6.87918 29.689C6.77847 29.8337 6.86813 30.0335 7.04318 30.0545L14.5185 30.9516C17.4955 31.3088 20.5045 31.3088 23.4815 30.9516L30.9568 30.0545C31.1319 30.0335 31.2215 29.8337 31.1208 29.689C29.2651 27.0225 28.1766 23.8981 27.9738 20.6558L27.5318 13.5889C27.3529 10.7285 24.9808 8.50012 22.1148 8.50012H15.8852ZM19 38.5001C17.6193 38.5001 16.5 37.3808 16.5 36.0001V34.5001H21.5V36.0001C21.5 37.3808 20.3807 38.5001 19 38.5001Z" fill="white"/>
<path d="M30.2862 0.709615C29.662 1.25434 29.5976 2.2019 30.1424 2.82605L32.726 5.78639C33.7287 6.93533 34.2956 8.40024 34.3274 9.92488L34.4407 15.3602C34.458 16.1884 35.1434 16.8459 35.9717 16.8286C36.7999 16.8113 37.4573 16.1259 37.4401 15.2976L37.3267 9.86232C37.2802 7.63401 36.4518 5.49298 34.9862 3.81377L32.4026 0.853431C31.8579 0.229279 30.9103 0.16489 30.2862 0.709615Z" fill="white"/>
</svg>
