<svg width="189" height="176" viewBox="0 0 189 176" fill="none" xmlns="http://www.w3.org/2000/svg">
<path d="M179.696 89.4763C179.533 77.2929 170.45 66.9679 160.958 60.6569C150.443 53.632 138.104 49.975 125.567 49.5641C100.189 48.6038 76.5691 60.0604 55.8252 73.8187C42.908 82.3777 30.8903 92.2123 19.6597 103.024C18.6173 104.031 19.0131 106.189 19.9907 107.006C21.2267 108.064 22.8424 107.69 23.8847 106.683C33.4118 97.5647 43.5685 89.228 54.3547 81.6731C64.2329 74.8156 74.4821 68.4982 85.4405 63.6166C106.785 54.3337 131.674 51.1171 153.025 62.4719C163.067 67.7977 173.956 77.5882 174.085 90.1272C174.155 91.6416 175.739 92.7355 177.119 92.6244C178.892 92.4454 179.765 90.9908 179.696 89.4763Z" fill="black"/>
<path d="M19.8013 60.6567C19.3398 75.4053 18.8784 90.1538 18.4169 104.902C18.309 107.944 17.6521 111.971 20.7553 113.758C22.2846 114.704 24.0593 114.525 25.8225 114.094C27.5856 113.662 29.2476 113.184 31.0555 112.65C38.0517 110.775 44.9914 108.75 51.9876 106.875C59.8595 104.658 67.6867 102.544 75.5586 100.327C76.9735 99.86 77.6337 98.0597 77.1261 96.7153C76.5622 95.2216 74.9998 94.632 73.585 95.0988C60.772 98.6456 47.9589 102.192 35.2918 105.682C32.0127 106.534 28.7899 107.536 25.5108 108.388C25.1177 108.456 24.1291 108.499 23.7476 108.819C23.4109 109.037 23.6913 108.67 23.804 108.969C24.0528 110.071 24.1076 109.107 24.1076 109.107C24.1523 109.004 24.0827 107.489 24.1275 107.386C24.1823 106.421 24.1922 105.561 24.247 104.597C24.4843 97.9053 24.6205 91.1679 24.9027 84.3734C25.1948 76.7181 25.3857 69.0166 25.6778 61.3612C25.7542 59.7889 24.8983 58.4092 23.3027 58.1753C21.6176 58.1478 19.8328 59.1876 19.8013 60.6567Z" fill="black"/>
</svg>
