<svg width="30" height="40" viewBox="0 0 30 40" fill="none" xmlns="http://www.w3.org/2000/svg">
<path d="M12 28C12 26.3431 13.3431 25 15 25C16.6569 25 18 26.3431 18 28C18 29.6569 16.6569 31 15 31C13.3431 31 12 29.6569 12 28Z" fill="white"/>
<path fill-rule="evenodd" clip-rule="evenodd" d="M6.2433 17.1943L5.61242 11.5163C5.53154 10.7884 5.53154 10.0537 5.61242 9.32575L5.65795 8.91596C6.14093 4.56918 9.55813 1.12986 13.9017 0.618855C14.6314 0.533014 15.3686 0.533014 16.0982 0.618855C20.4418 1.12986 23.859 4.56918 24.342 8.91596L24.3875 9.32576C24.4684 10.0537 24.4684 10.7884 24.3875 11.5163L23.7566 17.1943L25.1298 17.3039C27.2953 17.4768 29.0635 19.1046 29.4145 21.2484C30.1466 25.7197 30.1466 30.2803 29.4145 34.7516C29.0635 36.8954 27.2953 38.5232 25.1298 38.6961L22.1375 38.935C17.3868 39.3142 12.6133 39.3142 7.86256 38.935L4.8703 38.6961C2.70485 38.5232 0.936638 36.8954 0.585607 34.7516C-0.146537 30.2803 -0.146537 25.7197 0.585607 21.2484C0.936638 19.1046 2.70485 17.4768 4.8703 17.3039L6.2433 17.1943ZM14.2522 3.59831C14.749 3.53986 15.2509 3.53986 15.7477 3.59831C18.7049 3.94622 21.0315 6.28782 21.3603 9.24726L21.4058 9.65705C21.4623 10.1648 21.4623 10.6773 21.4058 11.185L20.7635 16.9659C16.9251 16.7188 13.0748 16.7188 9.2364 16.966L8.59407 11.185C8.53765 10.6773 8.53765 10.1648 8.59407 9.65705L8.6396 9.24725C8.96843 6.28782 11.295 3.94622 14.2522 3.59831ZM21.8988 20.0555C17.3069 19.6889 12.6932 19.6889 8.1013 20.0555L5.10904 20.2944C4.31918 20.3574 3.67422 20.9512 3.54618 21.7332C2.86661 25.8834 2.86661 30.1166 3.54618 34.2668C3.67422 35.0488 4.31918 35.6426 5.10904 35.7056L8.1013 35.9445C12.6932 36.3111 17.3069 36.3111 21.8988 35.9445L24.8911 35.7056C25.6809 35.6426 26.3259 35.0488 26.4539 34.2668C27.1335 30.1166 27.1335 25.8834 26.4539 21.7332C26.3259 20.9512 25.6809 20.3574 24.8911 20.2944L21.8988 20.0555Z" fill="white"/>
</svg>
