<svg width="11" height="11" viewBox="0 0 11 11" fill="none" xmlns="http://www.w3.org/2000/svg">
<path d="M8.43344 10.4236H2.08963C1.213 10.4236 0.496826 9.7074 0.496826 8.83078V2.48697C0.496826 1.61034 1.213 0.894165 2.08963 0.894165H8.43344C9.31006 0.894165 10.0262 1.61034 10.0262 2.48697V8.83078C10.0262 9.71132 9.31398 10.4236 8.43344 10.4236Z" fill="white"/>
<path d="M5.2635 8.10662C4.60994 8.10662 3.99552 7.85224 3.53372 7.39044C3.07193 6.92865 2.81755 6.31423 2.81755 5.66067C2.81755 5.00711 3.07193 4.39269 3.53372 3.9309C3.99552 3.4691 4.60994 3.21472 5.2635 3.21472C5.91705 3.21472 6.53148 3.4691 6.99327 3.9309C7.45507 4.39269 7.70944 5.00711 7.70944 5.66067C7.70944 6.31423 7.45507 6.92865 6.99327 7.39044C6.52756 7.85224 5.91705 8.10662 5.2635 8.10662ZM5.2635 3.73522C4.20294 3.73522 3.33805 4.59619 3.33805 5.66067C3.33805 6.72123 4.19902 7.58612 5.2635 7.58612C6.32406 7.58612 7.18895 6.72515 7.18895 5.66067C7.18503 4.60011 6.32406 3.73522 5.2635 3.73522Z" fill="black"/>
<path d="M8.18621 3.13458C8.44558 3.13458 8.65584 2.92432 8.65584 2.66495C8.65584 2.40557 8.44558 2.19531 8.18621 2.19531C7.92684 2.19531 7.71658 2.40557 7.71658 2.66495C7.71658 2.92432 7.92684 3.13458 8.18621 3.13458Z" fill="black"/>
</svg>
