<svg width="319" height="372" viewBox="0 0 319 372" fill="none" xmlns="http://www.w3.org/2000/svg">
<path d="M168.927 40.252V46.6186" stroke="#C4C4C4" stroke-width="1.42312" stroke-miterlimit="10" stroke-linecap="round"/>
<path d="M172.11 43.4353H165.744" stroke="#C4C4C4" stroke-width="1.42312" stroke-miterlimit="10" stroke-linecap="round"/>
<path d="M178.979 40.252V46.6186" stroke="#C4C4C4" stroke-width="1.42312" stroke-miterlimit="10" stroke-linecap="round"/>
<path d="M182.163 43.4353H175.796" stroke="#C4C4C4" stroke-width="1.42312" stroke-miterlimit="10" stroke-linecap="round"/>
<path d="M189.032 40.252V46.6186" stroke="#C4C4C4" stroke-width="1.42312" stroke-miterlimit="10" stroke-linecap="round"/>
<path d="M192.215 43.4353H185.849" stroke="#C4C4C4" stroke-width="1.42312" stroke-miterlimit="10" stroke-linecap="round"/>
<path d="M199.084 40.252V46.6186" stroke="#C4C4C4" stroke-width="1.42312" stroke-miterlimit="10" stroke-linecap="round"/>
<path d="M202.268 43.4353H195.901" stroke="#C4C4C4" stroke-width="1.42312" stroke-miterlimit="10" stroke-linecap="round"/>
<path d="M209.137 40.252V46.6186" stroke="#C4C4C4" stroke-width="1.42312" stroke-miterlimit="10" stroke-linecap="round"/>
<path d="M212.32 43.4353H205.954" stroke="#C4C4C4" stroke-width="1.42312" stroke-miterlimit="10" stroke-linecap="round"/>
<path d="M219.189 40.252V46.6186" stroke="#C4C4C4" stroke-width="1.42312" stroke-miterlimit="10" stroke-linecap="round"/>
<path d="M222.373 43.4353H216.006" stroke="#C4C4C4" stroke-width="1.42312" stroke-miterlimit="10" stroke-linecap="round"/>
<path d="M229.242 40.252V46.6186" stroke="#C4C4C4" stroke-width="1.42312" stroke-miterlimit="10" stroke-linecap="round"/>
<path d="M232.425 43.4353H226.058" stroke="#C4C4C4" stroke-width="1.42312" stroke-miterlimit="10" stroke-linecap="round"/>
<path d="M239.294 40.252V46.6186" stroke="#C4C4C4" stroke-width="1.42312" stroke-miterlimit="10" stroke-linecap="round"/>
<path d="M242.477 43.4353H236.111" stroke="#C4C4C4" stroke-width="1.42312" stroke-miterlimit="10" stroke-linecap="round"/>
<path d="M168.927 49.3121V55.6787" stroke="#C4C4C4" stroke-width="1.42312" stroke-miterlimit="10" stroke-linecap="round"/>
<path d="M172.11 52.4954H165.744" stroke="#C4C4C4" stroke-width="1.42312" stroke-miterlimit="10" stroke-linecap="round"/>
<path d="M178.979 49.3121V55.6787" stroke="#C4C4C4" stroke-width="1.42312" stroke-miterlimit="10" stroke-linecap="round"/>
<path d="M182.163 52.4954H175.796" stroke="#C4C4C4" stroke-width="1.42312" stroke-miterlimit="10" stroke-linecap="round"/>
<path d="M189.032 49.3121V55.6787" stroke="#C4C4C4" stroke-width="1.42312" stroke-miterlimit="10" stroke-linecap="round"/>
<path d="M192.215 52.4954H185.849" stroke="#C4C4C4" stroke-width="1.42312" stroke-miterlimit="10" stroke-linecap="round"/>
<path d="M199.084 49.3121V55.6787" stroke="#C4C4C4" stroke-width="1.42312" stroke-miterlimit="10" stroke-linecap="round"/>
<path d="M202.268 52.4954H195.901" stroke="#C4C4C4" stroke-width="1.42312" stroke-miterlimit="10" stroke-linecap="round"/>
<path d="M209.137 49.3121V55.6787" stroke="#C4C4C4" stroke-width="1.42312" stroke-miterlimit="10" stroke-linecap="round"/>
<path d="M212.32 52.4954H205.954" stroke="#C4C4C4" stroke-width="1.42312" stroke-miterlimit="10" stroke-linecap="round"/>
<path d="M219.189 49.3121V55.6787" stroke="#C4C4C4" stroke-width="1.42312" stroke-miterlimit="10" stroke-linecap="round"/>
<path d="M222.373 52.4954H216.006" stroke="#C4C4C4" stroke-width="1.42312" stroke-miterlimit="10" stroke-linecap="round"/>
<path d="M229.242 49.3121V55.6787" stroke="#C4C4C4" stroke-width="1.42312" stroke-miterlimit="10" stroke-linecap="round"/>
<path d="M232.425 52.4954H226.058" stroke="#C4C4C4" stroke-width="1.42312" stroke-miterlimit="10" stroke-linecap="round"/>
<path d="M239.294 49.3121V55.6787" stroke="#C4C4C4" stroke-width="1.42312" stroke-miterlimit="10" stroke-linecap="round"/>
<path d="M242.477 52.4954H236.111" stroke="#C4C4C4" stroke-width="1.42312" stroke-miterlimit="10" stroke-linecap="round"/>
<path d="M168.927 58.3852V64.7388" stroke="#C4C4C4" stroke-width="1.42312" stroke-miterlimit="10" stroke-linecap="round"/>
<path d="M172.11 61.5684H165.744" stroke="#C4C4C4" stroke-width="1.42312" stroke-miterlimit="10" stroke-linecap="round"/>
<path d="M178.979 58.3852V64.7388" stroke="#C4C4C4" stroke-width="1.42312" stroke-miterlimit="10" stroke-linecap="round"/>
<path d="M182.163 61.5684H175.796" stroke="#C4C4C4" stroke-width="1.42312" stroke-miterlimit="10" stroke-linecap="round"/>
<path d="M189.032 58.3852V64.7388" stroke="#C4C4C4" stroke-width="1.42312" stroke-miterlimit="10" stroke-linecap="round"/>
<path d="M192.215 61.5684H185.849" stroke="#C4C4C4" stroke-width="1.42312" stroke-miterlimit="10" stroke-linecap="round"/>
<path d="M199.084 58.3852V64.7388" stroke="#C4C4C4" stroke-width="1.42312" stroke-miterlimit="10" stroke-linecap="round"/>
<path d="M202.268 61.5684H195.901" stroke="#C4C4C4" stroke-width="1.42312" stroke-miterlimit="10" stroke-linecap="round"/>
<path d="M209.137 58.3852V64.7388" stroke="#C4C4C4" stroke-width="1.42312" stroke-miterlimit="10" stroke-linecap="round"/>
<path d="M212.32 61.5684H205.954" stroke="#C4C4C4" stroke-width="1.42312" stroke-miterlimit="10" stroke-linecap="round"/>
<path d="M219.189 58.3852V64.7388" stroke="#C4C4C4" stroke-width="1.42312" stroke-miterlimit="10" stroke-linecap="round"/>
<path d="M222.373 61.5684H216.006" stroke="#C4C4C4" stroke-width="1.42312" stroke-miterlimit="10" stroke-linecap="round"/>
<path d="M229.242 58.3852V64.7388" stroke="#C4C4C4" stroke-width="1.42312" stroke-miterlimit="10" stroke-linecap="round"/>
<path d="M232.425 61.5684H226.058" stroke="#C4C4C4" stroke-width="1.42312" stroke-miterlimit="10" stroke-linecap="round"/>
<path d="M239.294 58.3852V64.7388" stroke="#C4C4C4" stroke-width="1.42312" stroke-miterlimit="10" stroke-linecap="round"/>
<path d="M242.477 61.5684H236.111" stroke="#C4C4C4" stroke-width="1.42312" stroke-miterlimit="10" stroke-linecap="round"/>
<path d="M168.927 67.4452V73.8118" stroke="#C4C4C4" stroke-width="1.42312" stroke-miterlimit="10" stroke-linecap="round"/>
<path d="M172.11 70.6285H165.744" stroke="#C4C4C4" stroke-width="1.42312" stroke-miterlimit="10" stroke-linecap="round"/>
<path d="M178.979 67.4452V73.8118" stroke="#C4C4C4" stroke-width="1.42312" stroke-miterlimit="10" stroke-linecap="round"/>
<path d="M182.163 70.6285H175.796" stroke="#C4C4C4" stroke-width="1.42312" stroke-miterlimit="10" stroke-linecap="round"/>
<path d="M189.032 67.4452V73.8118" stroke="#C4C4C4" stroke-width="1.42312" stroke-miterlimit="10" stroke-linecap="round"/>
<path d="M192.215 70.6285H185.849" stroke="#C4C4C4" stroke-width="1.42312" stroke-miterlimit="10" stroke-linecap="round"/>
<path d="M199.084 67.4452V73.8118" stroke="#C4C4C4" stroke-width="1.42312" stroke-miterlimit="10" stroke-linecap="round"/>
<path d="M202.268 70.6285H195.901" stroke="#C4C4C4" stroke-width="1.42312" stroke-miterlimit="10" stroke-linecap="round"/>
<path d="M209.137 67.4452V73.8118" stroke="#C4C4C4" stroke-width="1.42312" stroke-miterlimit="10" stroke-linecap="round"/>
<path d="M212.32 70.6285H205.954" stroke="#C4C4C4" stroke-width="1.42312" stroke-miterlimit="10" stroke-linecap="round"/>
<path d="M219.189 67.4452V73.8118" stroke="#C4C4C4" stroke-width="1.42312" stroke-miterlimit="10" stroke-linecap="round"/>
<path d="M222.373 70.6285H216.006" stroke="#C4C4C4" stroke-width="1.42312" stroke-miterlimit="10" stroke-linecap="round"/>
<path d="M229.242 67.4452V73.8118" stroke="#C4C4C4" stroke-width="1.42312" stroke-miterlimit="10" stroke-linecap="round"/>
<path d="M232.425 70.6285H226.058" stroke="#C4C4C4" stroke-width="1.42312" stroke-miterlimit="10" stroke-linecap="round"/>
<path d="M239.294 67.4452V73.8118" stroke="#C4C4C4" stroke-width="1.42312" stroke-miterlimit="10" stroke-linecap="round"/>
<path d="M242.477 70.6285H236.111" stroke="#C4C4C4" stroke-width="1.42312" stroke-miterlimit="10" stroke-linecap="round"/>
<path d="M168.927 76.5182V82.8719" stroke="#C4C4C4" stroke-width="1.42312" stroke-miterlimit="10" stroke-linecap="round"/>
<path d="M172.11 79.7015H165.744" stroke="#C4C4C4" stroke-width="1.42312" stroke-miterlimit="10" stroke-linecap="round"/>
<path d="M178.979 76.5182V82.8718" stroke="#C4C4C4" stroke-width="1.42312" stroke-miterlimit="10" stroke-linecap="round"/>
<path d="M182.163 79.7015H175.796" stroke="#C4C4C4" stroke-width="1.42312" stroke-miterlimit="10" stroke-linecap="round"/>
<path d="M189.032 76.5182V82.8718" stroke="#C4C4C4" stroke-width="1.42312" stroke-miterlimit="10" stroke-linecap="round"/>
<path d="M192.215 79.7015H185.849" stroke="#C4C4C4" stroke-width="1.42312" stroke-miterlimit="10" stroke-linecap="round"/>
<path d="M199.084 76.5182V82.8718" stroke="#C4C4C4" stroke-width="1.42312" stroke-miterlimit="10" stroke-linecap="round"/>
<path d="M202.268 79.7015H195.901" stroke="#C4C4C4" stroke-width="1.42312" stroke-miterlimit="10" stroke-linecap="round"/>
<path d="M209.137 76.5182V82.8718" stroke="#C4C4C4" stroke-width="1.42312" stroke-miterlimit="10" stroke-linecap="round"/>
<path d="M212.32 79.7015H205.954" stroke="#C4C4C4" stroke-width="1.42312" stroke-miterlimit="10" stroke-linecap="round"/>
<path d="M219.189 76.5182V82.8718" stroke="#C4C4C4" stroke-width="1.42312" stroke-miterlimit="10" stroke-linecap="round"/>
<path d="M222.373 79.7015H216.006" stroke="#C4C4C4" stroke-width="1.42312" stroke-miterlimit="10" stroke-linecap="round"/>
<path d="M229.242 76.5182V82.8718" stroke="#C4C4C4" stroke-width="1.42312" stroke-miterlimit="10" stroke-linecap="round"/>
<path d="M232.425 79.7015H226.058" stroke="#C4C4C4" stroke-width="1.42312" stroke-miterlimit="10" stroke-linecap="round"/>
<path d="M239.294 76.5182V82.8718" stroke="#C4C4C4" stroke-width="1.42312" stroke-miterlimit="10" stroke-linecap="round"/>
<path d="M242.477 79.7015H236.111" stroke="#C4C4C4" stroke-width="1.42312" stroke-miterlimit="10" stroke-linecap="round"/>
<rect x="7.12085" y="93.2741" width="172.847" height="312.072" rx="17.8688" transform="rotate(-30.2216 7.12085 93.2741)" fill="#F8F8F8"/>
<rect x="68.9482" y="104.39" width="77.6628" height="12.3124" rx="6.1562" transform="rotate(-30.2216 68.9482 104.39)" fill="#D9D9D9"/>
<rect x="100.476" y="109.59" width="28.4132" height="12.3124" rx="6.1562" transform="rotate(-30.2216 100.476 109.59)" fill="#D9D9D9"/>
<g filter="url(#filter0_d_506_999)">
<path fill-rule="evenodd" clip-rule="evenodd" d="M164.63 13.2846C160.496 6.13868 151.417 3.65918 144.353 7.7465L12.7913 83.8649C5.7269 87.9522 3.3517 97.0586 7.48619 104.205L153.802 355.715C157.937 362.861 167.015 365.341 174.08 361.254L305.641 285.135C312.705 281.048 315.081 271.941 310.946 264.795L164.63 13.2846ZM160.498 19.8743C157.282 14.3164 150.221 12.3879 144.726 15.5669L121.341 29.0969L125.397 36.1073C127.005 38.8863 126.082 42.4276 123.334 44.0172L54.7113 83.721C51.964 85.3105 48.4334 84.3462 46.8256 81.5673L42.7695 74.5568L19.3848 88.0867C13.8903 91.2657 12.0429 98.3484 15.2586 103.906L157.935 349.126C161.15 354.684 168.211 356.612 173.706 353.433L299.047 280.913C304.542 277.734 306.389 270.652 303.174 265.094L249.915 173.557L160.498 19.8743Z" fill="#3E3E3E"/>
</g>
<rect x="58.0071" y="158.991" width="151.537" height="79.557" rx="8.93439" transform="rotate(-30.2216 58.0071 158.991)" fill="#D9D9D9"/>
<rect x="186.075" y="266.886" width="36.9372" height="36.9372" rx="18.4686" transform="rotate(-30.2216 186.075 266.886)" fill="#D9D9D9"/>
<rect x="236.843" y="247.726" width="18.9421" height="18.9421" rx="9.47107" transform="rotate(-30.2216 236.843 247.726)" fill="#D9D9D9"/>
<rect x="159.915" y="292.538" width="18.9421" height="18.9421" rx="9.47107" transform="rotate(-30.2216 159.915 292.538)" fill="#D9D9D9"/>
<rect x="5.68262" y="115.073" width="179.95" height="48.3024" rx="24.1512" fill="white"/>
<circle cx="29.8338" cy="139.698" r="17.0479" fill="#7E00FD"/>
<path d="M70.7605 141.41C70.8933 141.609 70.9596 141.802 70.9596 141.99C70.9596 142.245 70.8545 142.455 70.6444 142.621C70.4453 142.787 70.2074 142.87 69.9309 142.87C69.7539 142.87 69.5825 142.831 69.4165 142.754C69.2617 142.665 69.1289 142.538 69.0183 142.372L66.8115 139.02C66.5903 138.666 66.3525 138.417 66.098 138.274C65.8547 138.13 65.5339 138.058 65.1357 138.058H63.5096V141.775C63.5096 142.107 63.4156 142.372 63.2276 142.571C63.0395 142.759 62.7851 142.853 62.4643 142.853C62.1435 142.853 61.8836 142.759 61.6845 142.571C61.4964 142.372 61.4024 142.107 61.4024 141.775V132.068C61.4024 131.747 61.4909 131.498 61.6679 131.321C61.8559 131.144 62.1103 131.056 62.4311 131.056H66.5792C67.9066 131.056 68.9132 131.355 69.599 131.952C70.2959 132.538 70.6444 133.39 70.6444 134.507C70.6444 135.414 70.3844 136.161 69.8645 136.747C69.3557 137.322 68.6312 137.693 67.6909 137.859C68.0117 137.936 68.2938 138.075 68.5371 138.274C68.7805 138.473 69.0183 138.749 69.2506 139.103L70.7605 141.41ZM66.2806 136.415C67.0881 136.415 67.6799 136.266 68.056 135.967C68.432 135.658 68.6201 135.187 68.6201 134.557C68.6201 133.915 68.432 133.451 68.056 133.163C67.6799 132.865 67.0881 132.715 66.2806 132.715H63.493V136.415H66.2806ZM79.1781 140.53C79.3661 140.53 79.5155 140.602 79.6261 140.746C79.7477 140.89 79.8086 141.083 79.8086 141.327C79.8086 141.67 79.6039 141.957 79.1947 142.19C78.8186 142.4 78.3927 142.571 77.917 142.704C77.4414 142.826 76.9879 142.886 76.5565 142.886C75.2512 142.886 74.2169 142.51 73.4537 141.758C72.6904 141.006 72.3088 139.977 72.3088 138.672C72.3088 137.842 72.4747 137.107 72.8066 136.465C73.1384 135.824 73.603 135.326 74.2003 134.972C74.8087 134.618 75.4945 134.441 76.2578 134.441C76.9879 134.441 77.6239 134.601 78.1659 134.922C78.708 135.243 79.1283 135.696 79.427 136.283C79.7256 136.869 79.875 137.56 79.875 138.357C79.875 138.832 79.6648 139.07 79.2444 139.07H74.3497C74.416 139.833 74.6317 140.398 74.9968 140.763C75.3618 141.117 75.8928 141.294 76.5897 141.294C76.9436 141.294 77.2533 141.249 77.5188 141.161C77.7954 141.072 78.1051 140.951 78.448 140.796C78.7799 140.619 79.0232 140.53 79.1781 140.53ZM76.3076 135.901C75.7434 135.901 75.2899 136.078 74.947 136.432C74.6152 136.786 74.416 137.295 74.3497 137.958H78.0996C78.0774 137.284 77.9115 136.775 77.6018 136.432C77.2921 136.078 76.8607 135.901 76.3076 135.901ZM85.1721 142.886C84.3646 142.886 83.6511 142.715 83.0317 142.372C82.4233 142.029 81.9532 141.542 81.6213 140.912C81.2895 140.281 81.1235 139.546 81.1235 138.705C81.1235 137.864 81.295 137.123 81.6379 136.482C81.9919 135.829 82.4841 135.326 83.1146 134.972C83.7451 134.618 84.4697 134.441 85.2882 134.441C85.7196 134.441 86.151 134.502 86.5824 134.623C87.0249 134.745 87.4121 134.911 87.7439 135.121C88.0979 135.353 88.2749 135.647 88.2749 136.001C88.2749 136.244 88.214 136.443 88.0924 136.598C87.9817 136.742 87.8324 136.814 87.6444 136.814C87.5227 136.814 87.3955 136.786 87.2627 136.731C87.13 136.675 86.9973 136.609 86.8645 136.531C86.6212 136.388 86.3889 136.277 86.1676 136.2C85.9464 136.111 85.692 136.067 85.4044 136.067C84.7186 136.067 84.1876 136.294 83.8115 136.747C83.4465 137.19 83.264 137.831 83.264 138.672C83.264 139.502 83.4465 140.143 83.8115 140.597C84.1876 141.039 84.7186 141.26 85.4044 141.26C85.6809 141.26 85.9243 141.222 86.1345 141.144C86.3557 141.056 86.599 140.94 86.8645 140.796C87.0304 140.696 87.1742 140.624 87.2959 140.58C87.4176 140.525 87.5393 140.497 87.661 140.497C87.8379 140.497 87.9873 140.575 88.109 140.729C88.2306 140.884 88.2915 141.078 88.2915 141.31C88.2915 141.498 88.2472 141.664 88.1587 141.808C88.0813 141.941 87.9486 142.062 87.7605 142.173C87.4176 142.394 87.0194 142.571 86.5659 142.704C86.1123 142.826 85.6477 142.886 85.1721 142.886ZM93.3734 142.886C92.5438 142.886 91.8137 142.715 91.1832 142.372C90.5638 142.029 90.0826 141.537 89.7397 140.895C89.3968 140.254 89.2253 139.507 89.2253 138.655C89.2253 137.804 89.3968 137.062 89.7397 136.432C90.0826 135.79 90.5638 135.298 91.1832 134.955C91.8137 134.612 92.5438 134.441 93.3734 134.441C94.203 134.441 94.9276 134.612 95.547 134.955C96.1775 135.298 96.6587 135.79 96.9906 136.432C97.3335 137.062 97.5049 137.804 97.5049 138.655C97.5049 139.507 97.3335 140.254 96.9906 140.895C96.6587 141.537 96.1775 142.029 95.547 142.372C94.9276 142.715 94.203 142.886 93.3734 142.886ZM93.3568 141.277C94.0316 141.277 94.546 141.056 94.8999 140.613C95.2539 140.171 95.4309 139.518 95.4309 138.655C95.4309 137.804 95.2539 137.156 94.8999 136.714C94.546 136.26 94.0371 136.034 93.3734 136.034C92.7097 136.034 92.1954 136.26 91.8303 136.714C91.4764 137.156 91.2994 137.804 91.2994 138.655C91.2994 139.518 91.4764 140.171 91.8303 140.613C92.1843 141.056 92.6931 141.277 93.3568 141.277ZM103.747 134.474C104.035 134.452 104.261 134.513 104.427 134.657C104.593 134.8 104.676 135.016 104.676 135.304C104.676 135.602 104.604 135.824 104.46 135.967C104.317 136.111 104.057 136.205 103.681 136.249L103.183 136.299C102.53 136.366 102.049 136.587 101.739 136.963C101.441 137.339 101.291 137.809 101.291 138.373V141.858C101.291 142.178 101.192 142.427 100.993 142.604C100.793 142.77 100.545 142.853 100.246 142.853C99.9473 142.853 99.6984 142.77 99.4993 142.604C99.3112 142.427 99.2172 142.178 99.2172 141.858V135.436C99.2172 135.127 99.3112 134.889 99.4993 134.723C99.6984 134.557 99.9417 134.474 100.229 134.474C100.517 134.474 100.749 134.557 100.926 134.723C101.103 134.878 101.192 135.105 101.192 135.403V136.067C101.402 135.58 101.712 135.204 102.121 134.939C102.541 134.673 103.006 134.524 103.515 134.491L103.747 134.474ZM112.177 130.973C112.486 130.973 112.741 131.062 112.94 131.238C113.139 131.415 113.239 131.648 113.239 131.935V141.858C113.239 142.156 113.145 142.394 112.957 142.571C112.768 142.748 112.52 142.837 112.21 142.837C111.9 142.837 111.651 142.748 111.463 142.571C111.275 142.394 111.181 142.156 111.181 141.858V141.443C110.938 141.896 110.584 142.25 110.119 142.505C109.666 142.759 109.146 142.886 108.56 142.886C107.863 142.886 107.238 142.709 106.685 142.355C106.143 142.001 105.717 141.504 105.407 140.862C105.108 140.209 104.959 139.463 104.959 138.622C104.959 137.781 105.108 137.046 105.407 136.415C105.717 135.785 106.143 135.298 106.685 134.955C107.227 134.612 107.852 134.441 108.56 134.441C109.146 134.441 109.666 134.563 110.119 134.806C110.573 135.049 110.921 135.392 111.165 135.835V131.902C111.165 131.626 111.253 131.404 111.43 131.238C111.618 131.062 111.867 130.973 112.177 130.973ZM109.107 141.277C109.771 141.277 110.28 141.05 110.634 140.597C110.999 140.143 111.181 139.496 111.181 138.655C111.181 137.815 110.999 137.173 110.634 136.731C110.28 136.277 109.776 136.05 109.124 136.05C108.46 136.05 107.946 136.272 107.581 136.714C107.216 137.156 107.033 137.793 107.033 138.622C107.033 139.463 107.216 140.115 107.581 140.58C107.946 141.045 108.454 141.277 109.107 141.277ZM116.401 142.853C116.102 142.853 115.853 142.77 115.654 142.604C115.466 142.427 115.372 142.178 115.372 141.858V135.453C115.372 135.132 115.466 134.889 115.654 134.723C115.853 134.557 116.102 134.474 116.401 134.474C116.7 134.474 116.948 134.557 117.148 134.723C117.347 134.889 117.446 135.132 117.446 135.453V141.858C117.446 142.178 117.347 142.427 117.148 142.604C116.948 142.77 116.7 142.853 116.401 142.853ZM116.401 132.997C116.025 132.997 115.726 132.898 115.505 132.699C115.284 132.488 115.173 132.217 115.173 131.886C115.173 131.554 115.284 131.288 115.505 131.089C115.726 130.89 116.025 130.79 116.401 130.79C116.766 130.79 117.059 130.89 117.28 131.089C117.513 131.288 117.629 131.554 117.629 131.886C117.629 132.217 117.518 132.488 117.297 132.699C117.076 132.898 116.777 132.997 116.401 132.997ZM124.297 134.441C125.271 134.441 125.995 134.717 126.471 135.27C126.947 135.824 127.184 136.659 127.184 137.776V141.858C127.184 142.167 127.09 142.411 126.902 142.588C126.725 142.765 126.476 142.853 126.156 142.853C125.835 142.853 125.58 142.765 125.392 142.588C125.204 142.411 125.11 142.167 125.11 141.858V137.892C125.11 137.262 124.989 136.802 124.745 136.515C124.513 136.227 124.142 136.083 123.634 136.083C123.036 136.083 122.555 136.272 122.19 136.648C121.836 137.024 121.659 137.527 121.659 138.158V141.858C121.659 142.167 121.565 142.411 121.377 142.588C121.189 142.765 120.935 142.853 120.614 142.853C120.293 142.853 120.039 142.765 119.851 142.588C119.674 142.411 119.585 142.167 119.585 141.858V135.436C119.585 135.149 119.679 134.916 119.867 134.739C120.055 134.563 120.31 134.474 120.63 134.474C120.918 134.474 121.15 134.563 121.327 134.739C121.515 134.905 121.609 135.127 121.609 135.403V135.851C121.886 135.398 122.256 135.049 122.721 134.806C123.186 134.563 123.711 134.441 124.297 134.441ZM136.16 134.474C136.47 134.474 136.719 134.563 136.907 134.739C137.095 134.916 137.189 135.154 137.189 135.453V142.007C137.189 143.279 136.835 144.241 136.127 144.894C135.419 145.547 134.374 145.873 132.991 145.873C131.785 145.873 130.779 145.646 129.971 145.193C129.562 144.949 129.357 144.656 129.357 144.313C129.357 144.07 129.413 143.876 129.523 143.733C129.645 143.589 129.8 143.517 129.988 143.517C130.087 143.517 130.209 143.539 130.353 143.583C130.497 143.639 130.646 143.699 130.801 143.766C131.199 143.932 131.553 144.059 131.863 144.147C132.184 144.236 132.549 144.28 132.958 144.28C134.407 144.28 135.132 143.572 135.132 142.156V141.094C134.888 141.548 134.534 141.902 134.07 142.156C133.605 142.4 133.074 142.521 132.477 142.521C131.769 142.521 131.138 142.355 130.585 142.024C130.043 141.681 129.617 141.205 129.308 140.597C128.998 139.988 128.843 139.286 128.843 138.489C128.843 137.693 128.992 136.991 129.291 136.382C129.601 135.763 130.032 135.287 130.585 134.955C131.138 134.612 131.769 134.441 132.477 134.441C133.074 134.441 133.605 134.568 134.07 134.822C134.534 135.066 134.888 135.414 135.132 135.868V135.436C135.132 135.149 135.226 134.916 135.414 134.739C135.602 134.563 135.851 134.474 136.16 134.474ZM133.024 140.912C133.688 140.912 134.202 140.696 134.567 140.265C134.943 139.833 135.132 139.242 135.132 138.489C135.132 137.726 134.943 137.129 134.567 136.697C134.202 136.266 133.688 136.05 133.024 136.05C132.372 136.05 131.857 136.266 131.481 136.697C131.105 137.129 130.917 137.726 130.917 138.489C130.917 139.242 131.105 139.833 131.481 140.265C131.857 140.696 132.372 140.912 133.024 140.912ZM140.316 142.853C139.962 142.853 139.669 142.737 139.437 142.505C139.204 142.261 139.088 141.963 139.088 141.609C139.088 141.255 139.204 140.962 139.437 140.729C139.669 140.486 139.962 140.364 140.316 140.364C140.67 140.364 140.963 140.486 141.196 140.729C141.428 140.962 141.544 141.255 141.544 141.609C141.544 141.963 141.428 142.261 141.196 142.505C140.963 142.737 140.67 142.853 140.316 142.853ZM144.432 142.853C144.078 142.853 143.785 142.737 143.552 142.505C143.32 142.261 143.204 141.963 143.204 141.609C143.204 141.255 143.32 140.962 143.552 140.729C143.785 140.486 144.078 140.364 144.432 140.364C144.786 140.364 145.079 140.486 145.311 140.729C145.544 140.962 145.66 141.255 145.66 141.609C145.66 141.963 145.544 142.261 145.311 142.505C145.079 142.737 144.786 142.853 144.432 142.853Z" fill="black"/>
<path d="M76.5059 151.17C76.996 151.308 77.3674 151.545 77.6201 151.882C77.8805 152.219 78.0107 152.636 78.0107 153.134C78.0107 153.839 77.7733 154.394 77.2985 154.8C76.8237 155.205 76.1766 155.408 75.3572 155.408C74.8594 155.408 74.3808 155.324 73.9213 155.156C73.4695 154.987 73.0866 154.757 72.7726 154.466C72.6501 154.352 72.5888 154.221 72.5888 154.076C72.5888 153.961 72.6194 153.865 72.6807 153.789C72.742 153.712 72.8147 153.674 72.8989 153.674C73.0062 153.674 73.1134 153.716 73.2206 153.8C73.5729 154.084 73.9175 154.29 74.2544 154.421C74.5914 154.551 74.9551 154.616 75.3457 154.616C75.9124 154.616 76.3412 154.486 76.6322 154.225C76.9309 153.965 77.0802 153.59 77.0802 153.1C77.0802 152.112 76.4599 151.618 75.2193 151.618H74.6105C74.488 151.618 74.3884 151.579 74.3119 151.503C74.2429 151.419 74.2085 151.323 74.2085 151.216C74.2085 151.108 74.2429 151.017 74.3119 150.94C74.3884 150.863 74.488 150.825 74.6105 150.825H75.0355C75.6329 150.825 76.0924 150.695 76.414 150.435C76.7356 150.166 76.8964 149.784 76.8964 149.286C76.8964 148.849 76.7663 148.516 76.5059 148.286C76.2455 148.049 75.8779 147.93 75.4031 147.93C75.0432 147.93 74.6948 147.999 74.3578 148.137C74.0209 148.267 73.6839 148.47 73.3469 148.746C73.2397 148.83 73.1325 148.872 73.0253 148.872C72.9411 148.872 72.8683 148.834 72.807 148.757C72.7458 148.681 72.7152 148.585 72.7152 148.47C72.7152 148.325 72.7764 148.195 72.8989 148.08C73.2129 147.789 73.592 147.559 74.0362 147.39C74.488 147.222 74.9513 147.138 75.4261 147.138C76.1613 147.138 76.7433 147.325 77.1721 147.701C77.6086 148.068 77.8269 148.566 77.8269 149.194C77.8269 149.661 77.7082 150.071 77.4708 150.423C77.2411 150.768 76.9194 151.017 76.5059 151.17ZM80.1888 150.905C80.005 150.905 79.8518 150.848 79.7293 150.733C79.6067 150.611 79.5455 150.454 79.5455 150.262C79.5455 150.071 79.6067 149.918 79.7293 149.803C79.8518 149.68 80.005 149.619 80.1888 149.619C80.3649 149.619 80.5104 149.68 80.6253 149.803C80.7478 149.918 80.8091 150.071 80.8091 150.262C80.8091 150.454 80.7478 150.611 80.6253 150.733C80.5104 150.848 80.3649 150.905 80.1888 150.905ZM80.1888 155.385C80.005 155.385 79.8518 155.328 79.7293 155.213C79.6067 155.091 79.5455 154.934 79.5455 154.742C79.5455 154.551 79.6067 154.394 79.7293 154.271C79.8518 154.149 80.005 154.087 80.1888 154.087C80.3649 154.087 80.5104 154.149 80.6253 154.271C80.7478 154.394 80.8091 154.551 80.8091 154.742C80.8091 154.934 80.7478 155.091 80.6253 155.213C80.5104 155.328 80.3649 155.385 80.1888 155.385ZM84.9388 155.42C84.0122 155.42 83.3077 155.068 82.8252 154.363C82.3428 153.659 82.1015 152.632 82.1015 151.285C82.1015 149.929 82.3428 148.899 82.8252 148.195C83.3077 147.49 84.0122 147.138 84.9388 147.138C85.8655 147.138 86.57 147.49 87.0525 148.195C87.5349 148.891 87.7761 149.918 87.7761 151.273C87.7761 152.629 87.5349 153.659 87.0525 154.363C86.57 155.068 85.8655 155.42 84.9388 155.42ZM84.9388 154.627C85.5821 154.627 86.0569 154.355 86.3632 153.812C86.6696 153.268 86.8227 152.422 86.8227 151.273C86.8227 150.117 86.6696 149.27 86.3632 148.734C86.0646 148.198 85.5898 147.93 84.9388 147.93C84.2956 147.93 83.8208 148.202 83.5144 148.746C83.2081 149.282 83.055 150.124 83.055 151.273C83.055 152.422 83.2081 153.268 83.5144 153.812C83.8208 154.355 84.2956 154.627 84.9388 154.627ZM93.228 151.17C93.7028 151.315 94.0704 151.564 94.3308 151.916C94.5988 152.269 94.7328 152.69 94.7328 153.18C94.7328 153.877 94.4801 154.424 93.9747 154.823C93.4692 155.213 92.7532 155.408 91.8266 155.408C90.9 155.408 90.1839 155.213 89.6785 154.823C89.1731 154.424 88.9204 153.877 88.9204 153.18C88.9204 152.682 89.0544 152.257 89.3224 151.905C89.5904 151.553 89.9619 151.308 90.4367 151.17C90.0308 151.017 89.7091 150.775 89.4717 150.446C89.2343 150.117 89.1156 149.73 89.1156 149.286C89.1156 148.627 89.353 148.106 89.8278 147.724C90.3103 147.333 90.9765 147.138 91.8266 147.138C92.6766 147.138 93.3391 147.333 93.8139 147.724C94.2963 148.106 94.5375 148.627 94.5375 149.286C94.5375 149.73 94.4188 150.121 94.1814 150.457C93.944 150.787 93.6262 151.024 93.228 151.17ZM90.0461 149.355C90.0461 149.83 90.1954 150.193 90.4941 150.446C90.8004 150.699 91.2446 150.825 91.8266 150.825C92.4086 150.825 92.8489 150.699 93.1476 150.446C93.4539 150.193 93.6071 149.83 93.6071 149.355C93.6071 148.903 93.4539 148.551 93.1476 148.298C92.8489 148.045 92.4086 147.919 91.8266 147.919C91.2446 147.919 90.8004 148.045 90.4941 148.298C90.1954 148.551 90.0461 148.903 90.0461 149.355ZM91.8266 154.627C93.1438 154.627 93.8024 154.126 93.8024 153.122C93.8024 152.119 93.1438 151.618 91.8266 151.618C90.5094 151.618 89.8508 152.119 89.8508 153.122C89.8508 154.126 90.5094 154.627 91.8266 154.627Z" fill="black"/>
<path d="M65.4244 148.281C65.4244 148.11 65.2853 147.971 65.1137 147.971C64.942 147.971 64.8029 148.11 64.8029 148.281V150.353C64.8029 150.46 64.8581 150.56 64.949 150.617L66.1921 151.394C66.3376 151.485 66.5293 151.44 66.6203 151.295C66.7113 151.149 66.667 150.958 66.5215 150.867L65.4244 150.181V148.281Z" fill="black"/>
<path fill-rule="evenodd" clip-rule="evenodd" d="M65.1137 146.728C63.1113 146.728 61.488 148.351 61.488 150.353C61.488 152.356 63.1113 153.979 65.1137 153.979C67.1161 153.979 68.7393 152.356 68.7393 150.353C68.7393 148.351 67.1161 146.728 65.1137 146.728ZM62.1096 150.353C62.1096 148.694 63.4546 147.349 65.1137 147.349C66.7728 147.349 68.1178 148.694 68.1178 150.353C68.1178 152.012 66.7728 153.357 65.1137 153.357C63.4546 153.357 62.1096 152.012 62.1096 150.353Z" fill="black"/>
<mask id="path-94-outside-1_506_999" maskUnits="userSpaceOnUse" x="214.501" y="166.291" width="73" height="26" fill="black">
<rect fill="white" x="214.501" y="166.291" width="73" height="26"/>
<path d="M224.501 179.545C229.459 177.066 235.125 176.004 240.613 176.358C245.925 176.712 250.705 179.368 255.486 181.492C262.922 183.617 270.889 183.086 277.794 179.545"/>
</mask>
<path d="M220.332 171.205C215.726 173.508 213.859 179.109 216.162 183.714C218.465 188.32 224.065 190.187 228.671 187.884L220.332 171.205ZM240.613 176.358L241.233 167.055L241.223 167.054L241.214 167.053L240.613 176.358ZM255.486 181.492L251.699 190.012L252.296 190.278L252.924 190.457L255.486 181.492ZM282.049 187.841C286.631 185.491 288.44 179.872 286.091 175.29C283.741 170.708 278.122 168.899 273.54 171.248L282.049 187.841ZM228.671 187.884C232.074 186.183 236.082 185.409 240.013 185.662L241.214 167.053C234.167 166.599 226.844 167.949 220.332 171.205L228.671 187.884ZM239.993 185.661C243.161 185.872 245.776 187.38 251.699 190.012L259.272 172.972C255.634 171.355 248.689 167.552 241.233 167.055L239.993 185.661ZM252.924 190.457C262.424 193.171 272.851 192.558 282.049 187.841L273.54 171.248C268.927 173.614 263.42 174.062 258.047 172.527L252.924 190.457Z" fill="white" mask="url(#path-94-outside-1_506_999)"/>
<mask id="path-96-outside-2_506_999" maskUnits="userSpaceOnUse" x="214.501" y="173.74" width="73" height="26" fill="black">
<rect fill="white" x="214.501" y="173.74" width="73" height="26"/>
<path d="M224.501 186.981C229.282 184.856 234.416 183.44 239.728 183.794C244.862 184.148 249.466 186.096 253.892 188.397C261.682 191.23 270.535 190.699 277.794 186.981"/>
</mask>
<path d="M220.715 178.461C216.009 180.552 213.89 186.062 215.981 190.768C218.073 195.473 223.583 197.592 228.288 195.501L220.715 178.461ZM239.728 183.794L240.369 174.492L240.359 174.492L240.348 174.491L239.728 183.794ZM253.892 188.397L249.591 196.669L250.132 196.951L250.706 197.16L253.892 188.397ZM282.045 195.279C286.628 192.932 288.44 187.314 286.093 182.731C283.745 178.147 278.127 176.335 273.544 178.682L282.045 195.279ZM228.288 195.501C232.28 193.727 235.845 192.88 239.108 193.097L240.348 174.491C232.988 174 226.283 175.986 220.715 178.461L228.288 195.501ZM239.086 193.096C242.278 193.316 245.504 194.544 249.591 196.669L258.194 180.125C253.428 177.647 247.447 174.981 240.369 174.492L239.086 193.096ZM250.706 197.16C260.895 200.865 272.444 200.197 282.045 195.279L273.544 178.682C268.626 181.201 262.47 181.596 257.078 179.635L250.706 197.16Z" fill="white" mask="url(#path-96-outside-2_506_999)"/>
<mask id="path-98-outside-3_506_999" maskUnits="userSpaceOnUse" x="214.501" y="181.28" width="73" height="26" fill="black">
<rect fill="white" x="214.501" y="181.28" width="73" height="26"/>
<path d="M224.501 194.594C229.99 191.761 236.187 190.699 242.384 191.584C246.987 192.293 250.705 194.417 254.777 196.188C262.214 199.021 270.712 197.958 277.794 194.594"/>
</mask>
<path d="M220.225 186.309C215.649 188.671 213.855 194.295 216.216 198.87C218.578 203.446 224.202 205.241 228.778 202.879L220.225 186.309ZM242.384 191.584L243.801 182.369L243.752 182.361L243.702 182.354L242.384 191.584ZM254.777 196.188L251.06 204.738L251.257 204.824L251.458 204.901L254.777 196.188ZM281.795 203.016C286.446 200.807 288.425 195.245 286.216 190.594C284.007 185.943 278.445 183.963 273.794 186.172L281.795 203.016ZM228.778 202.879C232.548 200.934 236.789 200.203 241.065 200.814L243.702 182.354C235.584 181.195 227.432 182.589 220.225 186.309L228.778 202.879ZM240.966 200.8C243.989 201.265 245.834 202.466 251.06 204.738L258.495 187.637C255.576 186.368 249.985 183.32 243.801 182.369L240.966 200.8ZM251.458 204.901C261.803 208.841 272.984 207.201 281.795 203.016L273.794 186.172C268.44 188.715 262.625 189.2 258.097 187.475L251.458 204.901Z" fill="white" mask="url(#path-98-outside-3_506_999)"/>
<path d="M211.205 211.945L217.278 166.691L253.432 194.594L211.205 211.945Z" fill="#FF2AAC"/>
<path d="M264.716 178.293L252.167 176.162H248.852L248.379 179.477C251.536 181.608 257.945 185.87 258.324 185.87C258.702 185.87 263.375 184.133 265.664 183.265L264.716 178.293Z" fill="white"/>
<path d="M224.502 179.545C229.459 177.066 235.125 176.004 240.613 176.358C245.925 176.712 250.705 179.368 255.486 181.492C262.922 183.617 270.889 183.086 277.794 179.545" stroke="#19223F" stroke-width="3.57899" stroke-miterlimit="10" stroke-linecap="round"/>
<path d="M224.502 186.981C229.282 184.856 234.417 183.44 239.728 183.794C244.863 184.148 249.466 186.096 253.892 188.397C261.683 191.23 270.535 190.699 277.794 186.981" stroke="#19223F" stroke-width="3.57899" stroke-miterlimit="10" stroke-linecap="round"/>
<path d="M224.502 194.594C229.99 191.761 236.187 190.699 242.384 191.584C246.987 192.293 250.705 194.417 254.778 196.188C262.214 199.021 270.712 197.958 277.794 194.594" stroke="#19223F" stroke-width="3.57899" stroke-miterlimit="10" stroke-linecap="round"/>
<defs>
<filter id="filter0_d_506_999" x="1.4541" y="5.77694" width="315.524" height="365.446" filterUnits="userSpaceOnUse" color-interpolation-filters="sRGB">
<feFlood flood-opacity="0" result="BackgroundImageFix"/>
<feColorMatrix in="SourceAlpha" type="matrix" values="0 0 0 0 0 0 0 0 0 0 0 0 0 0 0 0 0 0 127 0" result="hardAlpha"/>
<feOffset dy="4"/>
<feGaussianBlur stdDeviation="2"/>
<feComposite in2="hardAlpha" operator="out"/>
<feColorMatrix type="matrix" values="0 0 0 0 0 0 0 0 0 0 0 0 0 0 0 0 0 0 0.25 0"/>
<feBlend mode="normal" in2="BackgroundImageFix" result="effect1_dropShadow_506_999"/>
<feBlend mode="normal" in="SourceGraphic" in2="effect1_dropShadow_506_999" result="shape"/>
</filter>
</defs>
</svg>
