<svg width="48" height="48" viewBox="0 0 48 48" fill="none" xmlns="http://www.w3.org/2000/svg">
<path d="M20 6.03552C19.1716 6.03552 18.5 5.36395 18.5 4.53552C18.5 3.7071 19.1716 3.03552 20 3.03552H27.0711C27.8995 3.03552 28.5711 3.7071 28.5711 4.53552C28.5711 5.36395 27.8995 6.03552 27.0711 6.03552H20Z" fill="white"/>
<path d="M13.0607 6.93933C13.6464 7.52512 13.6464 8.47486 13.0607 9.06065L8.06066 14.0607C7.47487 14.6464 6.52513 14.6464 5.93934 14.0607C5.35355 13.4749 5.35355 12.5251 5.93934 11.9393L10.9393 6.93933C11.5251 6.35354 12.4749 6.35354 13.0607 6.93933Z" fill="white"/>
<path d="M24 11.5C15.9919 11.5 9.5 17.9919 9.5 26C9.5 34.0081 15.9919 40.5 24 40.5C32.0081 40.5 38.5 34.0081 38.5 26C38.5 25.1716 39.1716 24.5 40 24.5C40.8284 24.5 41.5 25.1716 41.5 26C41.5 35.665 33.665 43.5 24 43.5C14.335 43.5 6.5 35.665 6.5 26C6.5 16.335 14.335 8.49999 24 8.49999C24.8284 8.49999 25.5 9.17156 25.5 9.99999C25.5 10.8284 24.8284 11.5 24 11.5Z" fill="white"/>
<path d="M34.3764 16.7285C34.8408 16.1314 34.788 15.2819 34.253 14.7469C33.7181 14.212 32.8686 14.1591 32.2715 14.6236L25.9317 19.5545L21.7888 22.5137C20.9039 23.1458 20.3787 24.1664 20.3787 25.2539C20.3787 27.1137 21.8863 28.6213 23.7461 28.6213C24.8336 28.6213 25.8542 28.0961 26.4863 27.2112L29.4454 23.0683L34.3764 16.7285Z" fill="white"/>
</svg>
