<svg width="10" height="9" viewBox="0 0 10 9" fill="none" xmlns="http://www.w3.org/2000/svg">
<path d="M0 7.71004C1.07642 7.77251 2.01771 7.513 2.93569 6.82577C2.00839 6.66237 1.36533 6.22505 1.01585 5.32156C1.28612 5.28311 1.52377 5.3552 1.80336 5.23986C0.890031 4.82656 0.29823 4.20661 0.274931 3.13492C0.563841 3.15895 0.782855 3.35598 1.12768 3.32715C0.288913 2.48133 0.0326188 1.55861 0.55918 0.438862C1.43523 1.47692 2.4604 2.18337 3.71389 2.51497C3.78379 2.53419 3.84902 2.55341 3.91892 2.56783C4.24045 2.64472 4.62256 2.80812 4.81827 2.78409C5.15378 2.74084 4.81827 2.34196 4.90215 1.82293C5.16776 0.208184 6.89189 -0.527104 8.16869 0.419639C8.54148 0.698376 8.83504 0.69357 9.20317 0.525367C9.39422 0.438862 9.58994 0.352358 9.81827 0.251436C9.76701 0.712793 9.42218 0.9675 9.14725 1.30871C9.45946 1.3808 9.71109 1.28949 10 1.19337C9.90214 1.52497 9.65983 1.7124 9.44082 1.89502C9.21249 2.08245 9.12395 2.27948 9.11463 2.58706C8.97484 7.24388 3.84437 10.8434 0.335511 7.97916C-0.00465643 7.70043 0.326188 7.97916 0 7.71004Z" fill="white"/>
</svg>
