<svg width="23" height="23" viewBox="0 0 23 23" fill="none" xmlns="http://www.w3.org/2000/svg">
<path d="M11.3955 6.52032C10.4313 6.52032 9.48879 6.80624 8.6871 7.34191C7.88541 7.87758 7.26057 8.63895 6.8916 9.52974C6.52262 10.4205 6.42608 11.4007 6.61418 12.3464C6.80228 13.292 7.26658 14.1607 7.94836 14.8425C8.63014 15.5243 9.49879 15.9886 10.4444 16.1767C11.3901 16.3648 12.3703 16.2682 13.2611 15.8992C14.1519 15.5303 14.9132 14.9054 15.4489 14.1037C15.9846 13.302 16.2705 12.3595 16.2705 11.3953C16.2692 10.1028 15.7551 8.86361 14.8412 7.94966C13.9272 7.03572 12.688 6.52167 11.3955 6.52032ZM11.3955 13.8328C10.9134 13.8328 10.4422 13.6899 10.0413 13.422C9.64046 13.1542 9.32804 12.7735 9.14355 12.3281C8.95906 11.8827 8.91079 11.3926 9.00484 10.9198C9.0989 10.447 9.33104 10.0126 9.67194 9.67175C10.0128 9.33086 10.4471 9.09871 10.92 9.00466C11.3928 8.91061 11.8829 8.95888 12.3283 9.14337C12.7737 9.32786 13.1544 9.64028 13.4222 10.0411C13.6901 10.442 13.833 10.9132 13.833 11.3953C13.833 12.0418 13.5762 12.6618 13.1191 13.1189C12.662 13.576 12.042 13.8328 11.3955 13.8328ZM16.2705 0.426575H6.52051C4.90492 0.428456 3.35605 1.07108 2.21365 2.21347C1.07126 3.35586 0.428639 4.90474 0.426758 6.52032V16.2703C0.428639 17.8859 1.07126 19.4348 2.21365 20.5772C3.35605 21.7196 4.90492 22.3622 6.52051 22.3641H16.2705C17.8861 22.3622 19.435 21.7196 20.5774 20.5772C21.7198 19.4348 22.3624 17.8859 22.3643 16.2703V6.52032C22.3624 4.90474 21.7198 3.35586 20.5774 2.21347C19.435 1.07108 17.8861 0.428456 16.2705 0.426575ZM19.9268 16.2703C19.9268 17.24 19.5415 18.17 18.8559 18.8557C18.1702 19.5414 17.2402 19.9266 16.2705 19.9266H6.52051C5.55081 19.9266 4.62083 19.5414 3.93515 18.8557C3.24947 18.17 2.86426 17.24 2.86426 16.2703V6.52032C2.86426 5.55063 3.24947 4.62065 3.93515 3.93497C4.62083 3.24929 5.55081 2.86407 6.52051 2.86407H16.2705C17.2402 2.86407 18.1702 3.24929 18.8559 3.93497C19.5415 4.62065 19.9268 5.55063 19.9268 6.52032V16.2703ZM18.3018 6.11407C18.3018 6.43547 18.2065 6.74965 18.0279 7.01688C17.8493 7.28411 17.5955 7.49239 17.2986 7.61538C17.0017 7.73837 16.675 7.77055 16.3597 7.70785C16.0445 7.64515 15.755 7.49038 15.5277 7.26312C15.3004 7.03586 15.1457 6.74632 15.083 6.4311C15.0203 6.11588 15.0525 5.78914 15.1755 5.49221C15.2984 5.19528 15.5067 4.94149 15.774 4.76294C16.0412 4.58438 16.3554 4.48907 16.6768 4.48907C17.1077 4.48907 17.5211 4.66028 17.8258 4.96503C18.1306 5.26977 18.3018 5.6831 18.3018 6.11407Z" fill="#7551DC"/>
</svg>
