<svg width="19" height="21" viewBox="0 0 19 21" fill="none" xmlns="http://www.w3.org/2000/svg">
<path d="M18.5142 18.6788L12.3189 8.94907L18.3842 2.27743C18.597 2.03753 18.7067 1.72341 18.6895 1.40317C18.6723 1.08293 18.5295 0.782386 18.2922 0.566699C18.0548 0.351012 17.742 0.237564 17.4216 0.250951C17.1012 0.264338 16.799 0.403482 16.5805 0.638215L10.9671 6.81728L7.1392 0.803762C7.02919 0.630797 6.87734 0.488373 6.69768 0.389669C6.51802 0.290965 6.31637 0.239169 6.11139 0.239075H1.23639C1.01807 0.239175 0.803785 0.297919 0.615934 0.409164C0.428083 0.52041 0.273563 0.680073 0.168526 0.871465C0.0634888 1.06286 0.0117913 1.27895 0.0188369 1.49716C0.0258825 1.71536 0.0914126 1.92767 0.208578 2.11189L6.40389 11.8416L0.334515 18.5132C0.224624 18.6313 0.139256 18.7699 0.0833576 18.9212C0.0274591 19.0725 0.00214247 19.2334 0.0088749 19.3945C0.0156073 19.5557 0.0542551 19.7139 0.122578 19.8599C0.190901 20.006 0.28754 20.1371 0.406894 20.2456C0.526249 20.354 0.665945 20.4377 0.817885 20.4918C0.969826 20.5459 1.13099 20.5693 1.29203 20.5606C1.45308 20.552 1.6108 20.5114 1.75607 20.4414C1.90133 20.3713 2.03124 20.2731 2.13827 20.1524L7.75569 13.9734L11.5836 19.9869C11.6936 20.1599 11.8454 20.3023 12.0251 20.401C12.2048 20.4997 12.4064 20.5515 12.6114 20.5516H17.4864C17.7047 20.5515 17.919 20.4927 18.1068 20.3815C18.2947 20.2702 18.4492 20.1106 18.5543 19.9192C18.6593 19.7278 18.711 19.5117 18.7039 19.2935C18.6969 19.0753 18.6314 18.863 18.5142 18.6788ZM13.2807 18.1141L3.45655 2.67657H5.44209L15.2662 18.1141H13.2807Z" fill="#7551DC"/>
</svg>
